REM DIRINDEX 1\2,1\3,1\4,1\6,1\5\7,1\5\8
REM DIRNAME cjc114,folder01,folder02,folder03,folder04,folder05,folder06,folder07
TITLE ""
FILE "DB4500_5th_2A_48.mp3" MP3
  TRACK 01 AUDIO
    TITLE "0:"
    INDEX 01 00:00:00
  TRACK 02 AUDIO
    TITLE "2:cjc114_1593"
    INDEX 01 00:00:03
  TRACK 03 AUDIO
    TITLE "0:"
    INDEX 01 00:01:32
  TRACK 04 AUDIO
    TITLE "3:cjc114_1594"
    INDEX 01 00:01:56
  TRACK 05 AUDIO
    TITLE "0:"
    INDEX 01 00:03:06
  TRACK 06 AUDIO
    TITLE "4:cjc114_1595"
    INDEX 01 00:03:31
  TRACK 07 AUDIO
    TITLE "0:"
    INDEX 01 00:09:26
  TRACK 08 AUDIO
    TITLE "2:cjc114_1596"
    INDEX 01 00:09:73
  TRACK 09 AUDIO
    TITLE "0:"
    INDEX 01 00:11:03
  TRACK 10 AUDIO
    TITLE "3:cjc114_1597"
    INDEX 01 00:11:29
  TRACK 11 AUDIO
    TITLE "0:"
    INDEX 01 00:12:46
  TRACK 12 AUDIO
    TITLE "4:cjc114_1598"
    INDEX 01 00:12:71
  TRACK 13 AUDIO
    TITLE "0:"
    INDEX 01 00:16:16
  TRACK 14 AUDIO
    TITLE "2:cjc114_1599"
    INDEX 01 00:16:67
  TRACK 15 AUDIO
    TITLE "0:"
    INDEX 01 00:17:69
  TRACK 16 AUDIO
    TITLE "3:cjc114_1600"
    INDEX 01 00:18:17
  TRACK 17 AUDIO
    TITLE "0:"
    INDEX 01 00:19:42
  TRACK 18 AUDIO
    TITLE "4:cjc114_1601"
    INDEX 01 00:19:67
  TRACK 19 AUDIO
    TITLE "0:"
    INDEX 01 00:24:37
  TRACK 20 AUDIO
    TITLE "2:cjc114_1602"
    INDEX 01 00:25:05
  TRACK 21 AUDIO
    TITLE "0:"
    INDEX 01 00:26:20
  TRACK 22 AUDIO
    TITLE "3:cjc114_1603"
    INDEX 01 00:26:46
  TRACK 23 AUDIO
    TITLE "0:"
    INDEX 01 00:27:71
  TRACK 24 AUDIO
    TITLE "4:cjc114_1604"
    INDEX 01 00:28:19
  TRACK 25 AUDIO
    TITLE "0:"
    INDEX 01 00:30:63
  TRACK 26 AUDIO
    TITLE "2:cjc114_1605"
    INDEX 01 00:31:35
  TRACK 27 AUDIO
    TITLE "0:"
    INDEX 01 00:32:50
  TRACK 28 AUDIO
    TITLE "3:cjc114_1606"
    INDEX 01 00:33:01
  TRACK 29 AUDIO
    TITLE "0:"
    INDEX 01 00:34:28
  TRACK 30 AUDIO
    TITLE "4:cjc114_1607"
    INDEX 01 00:34:55
  TRACK 31 AUDIO
    TITLE "0:"
    INDEX 01 00:39:29
  TRACK 32 AUDIO
    TITLE "2:cjc114_1608"
    INDEX 01 00:40:03
  TRACK 33 AUDIO
    TITLE "0:"
    INDEX 01 00:41:04
  TRACK 34 AUDIO
    TITLE "3:cjc114_1609"
    INDEX 01 00:41:30
  TRACK 35 AUDIO
    TITLE "0:"
    INDEX 01 00:43:31
  TRACK 36 AUDIO
    TITLE "4:cjc114_1610"
    INDEX 01 00:43:54
  TRACK 37 AUDIO
    TITLE "0:"
    INDEX 01 00:47:68
  TRACK 38 AUDIO
    TITLE "2:cjc114_1611"
    INDEX 01 00:48:44
  TRACK 39 AUDIO
    TITLE "0:"
    INDEX 01 00:49:61
  TRACK 40 AUDIO
    TITLE "3:cjc114_1612"
    INDEX 01 00:50:11
  TRACK 41 AUDIO
    TITLE "0:"
    INDEX 01 00:51:67
  TRACK 42 AUDIO
    TITLE "4:cjc114_1613"
    INDEX 01 00:52:16
  TRACK 43 AUDIO
    TITLE "0:"
    INDEX 01 00:56:37
  TRACK 44 AUDIO
    TITLE "2:cjc114_1614"
    INDEX 01 00:57:07
  TRACK 45 AUDIO
    TITLE "0:"
    INDEX 01 00:58:11
  TRACK 46 AUDIO
    TITLE "3:cjc114_1615"
    INDEX 01 00:58:34
  TRACK 47 AUDIO
    TITLE "0:"
    INDEX 01 01:00:13
  TRACK 48 AUDIO
    TITLE "4:cjc114_1616"
    INDEX 01 01:00:39
  TRACK 49 AUDIO
    TITLE "0:"
    INDEX 01 01:04:13
  TRACK 50 AUDIO
    TITLE "2:cjc114_1617"
    INDEX 01 01:04:58
  TRACK 51 AUDIO
    TITLE "0:"
    INDEX 01 01:06:00
  TRACK 52 AUDIO
    TITLE "3:cjc114_1618"
    INDEX 01 01:06:26
  TRACK 53 AUDIO
    TITLE "0:"
    INDEX 01 01:07:57
  TRACK 54 AUDIO
    TITLE "4:cjc114_1619"
    INDEX 01 01:08:03
  TRACK 55 AUDIO
    TITLE "0:"
    INDEX 01 01:12:70
  TRACK 56 AUDIO
    TITLE "2:cjc114_1620"
    INDEX 01 01:13:44
  TRACK 57 AUDIO
    TITLE "0:"
    INDEX 01 01:15:01
  TRACK 58 AUDIO
    TITLE "3:cjc114_1621"
    INDEX 01 01:15:27
  TRACK 59 AUDIO
    TITLE "0:"
    INDEX 01 01:16:60
  TRACK 60 AUDIO
    TITLE "4:cjc114_1622"
    INDEX 01 01:17:08
  TRACK 61 AUDIO
    TITLE "0:"
    INDEX 01 01:21:31
  TRACK 62 AUDIO
    TITLE "2:cjc114_1623"
    INDEX 01 01:22:05
  TRACK 63 AUDIO
    TITLE "0:"
    INDEX 01 01:23:30
  TRACK 64 AUDIO
    TITLE "3:cjc114_1624"
    INDEX 01 01:23:54
  TRACK 65 AUDIO
    TITLE "0:"
    INDEX 01 01:25:00
  TRACK 66 AUDIO
    TITLE "4:cjc114_1625"
    INDEX 01 01:25:25
  TRACK 67 AUDIO
    TITLE "0:"
    INDEX 01 01:29:29
